# xmcd CD database file
#
# Track frame offsets:
#	187
#	22342
#	45997
#	73515
#
# Disc length: 1273 seconds
#
# Revision: 0
# Processed by: cddbd v1.5.1PL2 Copyright (c) Steve Scherf et al.
# Submitted via: CDex 1.51
#
DISCID=2f04f704
DTITLE=class - 百万本の雨〜テレビ朝日系木曜ドラマ「ママのベッドへいらっしゃい」挿入歌〜
DYEAR=1900
DGENRE=JPop
TTITLE0=百万本の雨
TTITLE1=Melody
TTITLE2=聖夜
TTITLE3=百万本の雨（Ｏｒｉｇｉｎａｌ　Ｋａｒａｏｋｅ）
EXTD=
EXTT0=
EXTT1=
EXTT2=
EXTT3=
PLAYORDER=
